<?xml version="1.0" standalone="no"?>
<!DOCTYPE svg PUBLIC "-//W3C//DTD SVG 20010904//EN"
 "http://www.w3.org/TR/2001/REC-SVG-20010904/DTD/svg10.dtd">
<svg version="1.0" xmlns="http://www.w3.org/2000/svg"
 width="512.000000pt" height="512.000000pt" viewBox="0 0 512.000000 512.000000"
 preserveAspectRatio="xMidYMid meet">
<metadata>
Created by potrace 1.11, written by Peter Selinger 2001-2013
</metadata>
<g transform="translate(0.000000,512.000000) scale(0.100000,-0.100000)"
fill="#000000" stroke="none">
<path d="M2510 4801 c-22 -7 -393 -146 -865 -323 -88 -33 -200 -75 -250 -93
-116 -42 -655 -244 -675 -252 -8 -3 -19 -7 -25 -9 -14 -3 -333 -123 -370 -139
-16 -7 -79 -30 -139 -51 -156 -55 -198 -103 -181 -205 10 -57 56 -99 141 -128
38 -13 83 -29 99 -36 38 -15 79 -31 400 -150 143 -54 447 -167 675 -252 228
-85 512 -191 630 -234 118 -44 224 -84 235 -89 11 -5 72 -27 135 -50 63 -23
124 -45 135 -50 97 -40 115 -39 266 19 57 22 172 65 254 96 83 31 166 62 185
70 44 18 1211 455 1225 459 6 2 17 6 25 9 8 4 34 13 58 21 l42 15 0 -819 0
-819 33 7 c41 9 193 9 234 0 l33 -7 2 877 3 877 124 45 c116 42 126 48 151 86
31 49 36 100 16 148 -17 41 -54 66 -151 102 -38 14 -79 30 -90 34 -11 5 -83
32 -160 60 -77 28 -156 57 -175 65 -36 15 -823 308 -1300 485 -151 56 -284
106 -295 110 -11 5 -87 34 -170 65 -155 58 -212 70 -255 56z"/>
<path d="M1007 2952 c-7 -10 -45 -181 -52 -227 -4 -22 -8 -47 -10 -55 -2 -8
-7 -35 -10 -60 -3 -25 -8 -61 -10 -80 -3 -19 -8 -126 -12 -237 -6 -210 -2
-240 37 -286 19 -23 74 -47 109 -47 14 0 71 15 126 34 315 107 624 140 820 86
105 -28 266 -106 387 -186 160 -106 175 -107 324 -8 168 112 336 186 487 214
62 11 269 9 308 -4 7 -3 32 -7 54 -10 99 -12 243 -49 403 -102 88 -29 112 -30
161 -5 72 37 76 52 76 261 0 248 -23 449 -72 635 -8 33 -16 66 -16 73 0 8 -7
10 -16 7 -9 -4 -43 -15 -76 -27 -33 -11 -73 -26 -90 -33 -39 -17 -1084 -409
-1195 -448 -97 -34 -221 -44 -293 -22 -44 13 -437 159 -472 174 -11 5 -150 58
-310 117 -159 58 -303 112 -320 119 -29 13 -48 20 -242 91 -51 18 -94 30 -96
26z"/>
<path d="M4547 1486 c-161 -68 -268 -243 -323 -526 -3 -19 -9 -144 -11 -277
-5 -225 -4 -244 15 -286 15 -34 31 -51 62 -67 40 -20 52 -21 383 -18 385 3
378 2 418 80 18 35 20 58 18 261 -2 343 -39 512 -150 674 -108 157 -269 220
-412 159z"/>
</g>
</svg>
